<svg width="20" height="20" viewBox="0 0 81 81" fill="none" xmlns="http://www.w3.org/2000/svg">
<path d="M61.1887 23.6509C58.9811 20.9458 56.2622 18.7021 53.1874 17.0478C50.1126 15.3935 46.7421 14.361 43.2683 14.0093C39.7945 13.6576 36.2854 13.9936 32.9414 14.998C29.5974 16.0025 26.484 17.6557 23.779 19.8634C21.074 22.0711 18.8302 24.7899 17.1759 27.8647C15.5216 30.9395 14.4892 34.3101 14.1375 37.7839C13.7858 41.2577 14.1217 44.7668 15.1262 48.1107C16.1306 51.4547 17.7839 54.5681 19.9916 57.2731L40.5902 40.462L61.1887 23.6509Z" fill="#00B8FC"/>
<path d="M19.9974 57.1997C22.2007 59.9083 24.9158 62.1565 27.9879 63.8158C31.06 65.4751 34.4289 66.513 37.9021 66.8704C41.3754 67.2277 44.885 66.8975 48.2306 65.8985C51.5762 64.8995 54.6923 63.2513 57.4009 61.0481C60.1095 58.8448 62.3577 56.1296 64.017 53.0575C65.6763 49.9854 66.7143 46.6166 67.0716 43.1433C67.429 39.6701 67.0987 36.1605 66.0997 32.8149C65.1007 29.4693 63.4526 26.3532 61.2493 23.6446L40.6233 40.4221L19.9974 57.1997Z" fill="black"/>
</svg>
